<?xml version="1.0" standalone="yes"?>
<svg xmlns="http://www.w3.org/2000/svg" width="500" height="500">
<path style="fill:#ffffff00; stroke:none;" d="M0 0L0 500L500 500L500 0L0 0z"/>
<path style="fill:#2ec4b6; stroke:none;" d="M248 91L252 91C250.814 92.1862 250.472 92.5838 250 94C256.319 96.5719 261.901 89.2098 257.972 83.3179C255.044 78.9271 249.915 82.1468 248.724 85.9946C248.217 87.6313 248.139 89.3092 248 91M137 82L137 92L145 92L145 122L156 121L157 92L165 92L165 82L137 82M168 82C168.007 84.0684 167.652 86.7658 168.603 88.6837C170.003 91.5047 175.037 91.6784 177.012 89.3966C178.622 87.5359 178.699 84.3124 179 82L168 82M168 92L168 122C170.639 121.976 174.127 122.352 176.142 120.258C178.354 117.959 177.985 113.921 177.999 111C178.031 104.568 178.496 98.3897 179 92L168 92M181 92L181 122L191 122L191 104L194 104L194 119C196.686 119.501 199.27 119.883 202 120C202 114.415 201.134 108.446 205 104L206 122C208.425 121.971 211.519 122.282 213.397 120.397C214.819 118.968 214.899 116.885 214.981 114.999C215.198 110.019 216.821 99.5873 213.972 95.3179C211.234 91.2144 202.261 92.5296 199 95C195.167 92.9549 192.159 92.774 188 94C186.074 91.7923 183.875 92.0318 181 92M245 114C238.786 113.215 234.077 114.823 228 115L228 111C231.952 111 241.197 112.688 243.972 109.258C245.482 107.392 244.947 104.221 245.089 102C245.236 99.688 246.166 96.6449 244.357 94.7423C242.775 93.0774 240.114 93.0853 238 93.0154C232.817 92.8441 222.441 89.7628 218.603 94.3179C215.829 97.6104 217 104.007 217 108C217 111.332 216.033 116.668 218.028 119.566C220.106 122.586 224.83 121.995 228 122C235.824 122.013 244.449 124.026 245 114M337 93L337 135C340.695 134.533 344.265 134.031 348 134L348 122C352.317 122 359.956 123.459 363.682 120.972C368.238 117.932 366.086 104.829 365.995 100C365.955 97.872 366.071 95.2271 364.397 93.618C362.212 91.5187 358.642 92.7348 356 92.9105C349.684 93.3305 343.322 93.0349 337 93M279 110L279 114C272.649 113.926 267.479 111.005 261 111C261.002 113.893 260.349 118.143 262.603 120.397C264.028 121.821 266.118 121.899 268.001 121.981C272.779 122.189 283.713 123.863 287.397 120.258C292.471 115.29 288.901 104.322 281.996 104.019C278.676 103.874 275.324 104 272 104L272 100C276.294 100.124 280.716 102.385 284.941 101.833C288.878 101.32 290.618 95.5411 286.682 93.6034C282.314 91.453 269.72 92.0379 265.059 93.3179C260.183 94.6568 259.321 104.056 262.603 107.4C266.106 110.969 274.449 110 279 110M307 93L307 112C307.005 114.659 306.533 118.326 308.603 120.397C310.474 122.267 313.582 121.983 316 121.999L335 122L335 93C332.509 93.0019 328.706 92.3891 326.6 94.0278C322.232 97.4253 324 109.134 324 114C313.351 111.779 321.112 100.323 315.397 94.6034C313.325 92.53 309.664 93.0094 307 93z"/>
<path style="fill:#011627; stroke:none;" d="M227 100L227 105L235 106L235 100L227 100M349 102L349 114L355 114L355 102L349 102z"/>
<path style="fill:#2ec4b6; stroke:none;" d="M329 247L316 247L316 253L330 253C327.67 262.781 326.904 272.647 322.688 282C314.278 300.659 298.206 317.021 279 324.536C270.408 327.898 261.02 329.301 252 331L252 318L245 318L245 330C205.44 329.974 169.109 292.41 169 253L180 253L180 247L169 247C169.328 207.33 205.306 170.824 245 170L245 182L252 182L252 170C261.143 170.393 270.542 172.316 279 175.876C283.453 177.75 289.984 183.152 295 182.198C299.854 181.276 305.037 175.838 309 173C302.316 164.933 290.626 160.986 281 157.656C248.785 146.51 211.191 152.883 185 175.3C143.736 210.618 139.05 274.874 174.3 316C207.371 354.583 265.861 360.585 307 331.561C344.613 305.025 359.211 251.688 339.255 210C336.646 204.552 334.139 198.752 330.239 194.063C324.773 187.492 315.898 197.778 315.932 204C315.957 208.584 320.758 213.859 322.575 218C326.709 227.426 328.972 236.665 329 247z"/>
<path style="fill:#fdfffc; stroke:none;" d="M333 165C312.353 178.928 293.019 194.838 275 212.039C268.006 218.715 260.805 225.117 254.004 232C251.194 234.844 248.412 239.412 244.91 241.379C241.246 243.437 237.661 239.519 235 237.4C227.096 231.107 214.878 215.259 206.377 228.001C202.83 233.316 210.69 239.372 214 243C222.127 251.907 229.975 261.069 238.075 270C242.067 274.401 245.539 279.446 251 282C255.86 270.389 263.378 259.451 270.333 249C281.996 231.474 294.454 214.64 307.35 198C313.159 190.504 319.277 183.22 325.427 176C328.235 172.704 332.424 169.419 333 165z"/>
<path style="fill:#fdfffc; stroke:none;" d="M332 167L333 168L332 167M325 175L326 176L325 175M304 186L305 187L304 186M310 193L311 194L310 193M280 207L281 208L280 207M268 218L269 219L268 218M267 219L268 220L267 219M282 230L283 231L282 230M233 236L234 237L233 236M247 239L248 240L247 239M238 240L239 241L238 240M266 254L267 255L266 254M261 262L262 263L261 262M234 265L235 266L234 265M258 267L259 268L258 267z"/>
</svg>
